STARTFONT 2.1
COMMENT 5x10a.bdf Ver.1.00 (1998.2.22)
COMMENT Copyright 1998 (c) NAGAO, Sadakazu. All rights reserved.
COMMENT E-mail: snagao@cs.titech.ac.jp, snagao@tkb.att.ne.jp
FONT -Misc-Fixed-Medium-R-Normal--10-90-75-75-C-50-iso8859-1
SIZE 10 75 75
FONTBOUNDINGBOX 5 10 0 -2
STARTPROPERTIES 20
FONTNAME_REGISTRY ""
FOUNDRY "Misc"
FAMILY_NAME "Fixed"
WEIGHT_NAME "Medium"
SLANT "R"
SETWIDTH_NAME "Normal"
ADD_STYLE_NAME ""
PIXEL_SIZE 10
POINT_SIZE 90
RESOLUTION_X 75
RESOLUTION_Y 75
SPACING "C"
AVERAGE_WIDTH 50
CHARSET_REGISTRY "iso8859"
CHARSET_ENCODING "1"
DEFAULT_CHAR 0
FONT_DESCENT 2
FONT_ASCENT 8
COPYRIGHT "Copyright 1998 (c) NAGAO, Sadakazu. All rights reserved."
_XMBDFED_INFO "Edited with xmbdfed 2.7."
ENDPROPERTIES
CHARS 256
STARTCHAR 0
ENCODING 0
SWIDTH 480 0
DWIDTH 5 0
BBX 5 10 0 -2
BITMAP
00
00
00
00
00
00
00
00
00
00
ENDCHAR
STARTCHAR 1
ENCODING 1
SWIDTH 480 0
DWIDTH 5 0
BBX 5 10 0 -2
BITMAP
00
20
70
70
F8
70
70
20
00
00
ENDCHAR
STARTCHAR 2
ENCODING 2
SWIDTH 480 0
DWIDTH 5 0
BBX 5 10 0 -2
BITMAP
50
A8
50
A8
50
A8
50
A8
50
A8
ENDCHAR
STARTCHAR 3
ENCODING 3
SWIDTH 480 0
DWIDTH 5 0
BBX 5 10 0 -2
BITMAP
A0
A0
E0
A0
B8
10
10
10
10
00
ENDCHAR
STARTCHAR 4
ENCODING 4
SWIDTH 480 0
DWIDTH 5 0
BBX 5 10 0 -2
BITMAP
E0
80
C0
80
F8
20
30
20
20
00
ENDCHAR
STARTCHAR 5
ENCODING 5
SWIDTH 480 0
DWIDTH 5 0
BBX 5 10 0 -2
BITMAP
60
80
80
80
70
28
30
28
28
00
ENDCHAR
STARTCHAR 6
ENCODING 6
SWIDTH 480 0
DWIDTH 5 0
BBX 5 10 0 -2
BITMAP
80
80
80
80
F8
20
30
20
20
00
ENDCHAR
STARTCHAR 7
ENCODING 7
SWIDTH 480 0
DWIDTH 5 0
BBX 5 10 0 -2
BITMAP
60
90
90
60
00
00
00
00
00
00
ENDCHAR
STARTCHAR 8
ENCODING 8
SWIDTH 480 0
DWIDTH 5 0
BBX 5 10 0 -2
BITMAP
00
00
20
20
F8
20
20
F8
00
00
ENDCHAR
STARTCHAR 9
ENCODING 9
SWIDTH 480 0
DWIDTH 5 0
BBX 5 10 0 -2
BITMAP
C0
A0
A0
A0
A0
20
20
20
38
00
ENDCHAR
STARTCHAR a
ENCODING 10
SWIDTH 480 0
DWIDTH 5 0
BBX 5 10 0 -2
BITMAP
A0
A0
A0
40
78
10
10
10
10
00
ENDCHAR
STARTCHAR b
ENCODING 11
SWIDTH 480 0
DWIDTH 5 0
BBX 5 10 0 -2
BITMAP
20
20
20
20
E0
00
00
00
00
00
ENDCHAR
STARTCHAR c
ENCODING 12
SWIDTH 480 0
DWIDTH 5 0
BBX 5 10 0 -2
BITMAP
00
00
00
00
E0
20
20
20
20
20
ENDCHAR
STARTCHAR d
ENCODING 13
SWIDTH 480 0
DWIDTH 5 0
BBX 5 10 0 -2
BITMAP
00
00
00
00
38
20
20
20
20
20
ENDCHAR
STARTCHAR e
ENCODING 14
SWIDTH 480 0
DWIDTH 5 0
BBX 5 10 0 -2
BITMAP
20
20
20
20
38
00
00
00
00
00
ENDCHAR
STARTCHAR f
ENCODING 15
SWIDTH 480 0
DWIDTH 5 0
BBX 5 10 0 -2
BITMAP
20
20
20
20
F8
20
20
20
20
20
ENDCHAR
STARTCHAR 10
ENCODING 16
SWIDTH 480 0
DWIDTH 5 0
BBX 5 10 0 -2
BITMAP
F8
00
00
00
00
00
00
00
00
00
ENDCHAR
STARTCHAR 11
ENCODING 17
SWIDTH 480 0
DWIDTH 5 0
BBX 5 10 0 -2
BITMAP
00
00
F8
00
00
00
00
00
00
00
ENDCHAR
STARTCHAR 12
ENCODING 18
SWIDTH 480 0
DWIDTH 5 0
BBX 5 10 0 -2
BITMAP
00
00
00
00
F8
00
00
00
00
00
ENDCHAR
STARTCHAR 13
ENCODING 19
SWIDTH 480 0
DWIDTH 5 0
BBX 5 10 0 -2
BITMAP
00
00
00
00
00
00
F8
00
00
00
ENDCHAR
STARTCHAR 14
ENCODING 20
SWIDTH 480 0
DWIDTH 5 0
BBX 5 10 0 -2
BITMAP
00
00
00
00
00
00
00
00
00
F8
ENDCHAR
STARTCHAR 15
ENCODING 21
SWIDTH 480 0
DWIDTH 5 0
BBX 5 10 0 -2
BITMAP
20
20
20
20
38
20
20
20
20
20
ENDCHAR
STARTCHAR 16
ENCODING 22
SWIDTH 480 0
DWIDTH 5 0
BBX 5 10 0 -2
BITMAP
20
20
20
20
E0
20
20
20
20
20
ENDCHAR
STARTCHAR 17
ENCODING 23
SWIDTH 480 0
DWIDTH 5 0
BBX 5 10 0 -2
BITMAP
20
20
20
20
F8
00
00
00
00
00
ENDCHAR
STARTCHAR 18
ENCODING 24
SWIDTH 480 0
DWIDTH 5 0
BBX 5 10 0 -2
BITMAP
00
00
00
00
F8
20
20
20
20
20
ENDCHAR
STARTCHAR 19
ENCODING 25
SWIDTH 480 0
DWIDTH 5 0
BBX 5 10 0 -2
BITMAP
20
20
20
20
20
20
20
20
20
20
ENDCHAR
STARTCHAR 1a
ENCODING 26
SWIDTH 480 0
DWIDTH 5 0
BBX 5 10 0 -2
BITMAP
00
00
10
20
40
20
10
70
00
00
ENDCHAR
STARTCHAR 1b
ENCODING 27
SWIDTH 480 0
DWIDTH 5 0
BBX 5 10 0 -2
BITMAP
00
00
40
20
10
20
40
70
00
00
ENDCHAR
STARTCHAR 1c
ENCODING 28
SWIDTH 480 0
DWIDTH 5 0
BBX 5 10 0 -2
BITMAP
00
00
00
00
F8
50
50
98
00
00
ENDCHAR
STARTCHAR 1d
ENCODING 29
SWIDTH 480 0
DWIDTH 5 0
BBX 5 10 0 -2
BITMAP
00
10
10
F8
20
F8
40
40
00
00
ENDCHAR
STARTCHAR 1e
ENCODING 30
SWIDTH 480 0
DWIDTH 5 0
BBX 5 10 0 -2
BITMAP
00
30
48
40
F0
40
48
B0
00
00
ENDCHAR
STARTCHAR 1f
ENCODING 31
SWIDTH 480 0
DWIDTH 5 0
BBX 5 10 0 -2
BITMAP
00
00
00
00
20
00
00
00
00
00
ENDCHAR
STARTCHAR 20
ENCODING 32
SWIDTH 480 0
DWIDTH 5 0
BBX 5 10 0 -2
BITMAP
00
00
00
00
00
00
00
00
00
00
ENDCHAR
STARTCHAR 21
ENCODING 33
SWIDTH 480 0
DWIDTH 5 0
BBX 5 10 0 -2
BITMAP
00
20
20
20
20
00
00
20
00
00
ENDCHAR
STARTCHAR 22
ENCODING 34
SWIDTH 480 0
DWIDTH 5 0
BBX 5 10 0 -2
BITMAP
00
50
50
00
00
00
00
00
00
00
ENDCHAR
STARTCHAR 23
ENCODING 35
SWIDTH 480 0
DWIDTH 5 0
BBX 5 10 0 -2
BITMAP
00
50
50
F8
50
F8
50
50
00
00
ENDCHAR
STARTCHAR 24
ENCODING 36
SWIDTH 480 0
DWIDTH 5 0
BBX 5 10 0 -2
BITMAP
00
20
78
A0
70
28
F0
20
00
00
ENDCHAR
STARTCHAR 25
ENCODING 37
SWIDTH 480 0
DWIDTH 5 0
BBX 5 10 0 -2
BITMAP
00
00
68
68
10
20
58
58
00
00
ENDCHAR
STARTCHAR 26
ENCODING 38
SWIDTH 480 0
DWIDTH 5 0
BBX 5 10 0 -2
BITMAP
00
20
50
40
28
48
50
28
00
00
ENDCHAR
STARTCHAR 27
ENCODING 39
SWIDTH 480 0
DWIDTH 5 0
BBX 5 10 0 -2
BITMAP
00
20
20
40
00
00
00
00
00
00
ENDCHAR
STARTCHAR 28
ENCODING 40
SWIDTH 480 0
DWIDTH 5 0
BBX 5 10 0 -2
BITMAP
08
10
10
20
20
20
10
10
08
00
ENDCHAR
STARTCHAR 29
ENCODING 41
SWIDTH 480 0
DWIDTH 5 0
BBX 5 10 0 -2
BITMAP
40
20
20
10
10
10
20
20
40
00
ENDCHAR
STARTCHAR 2a
ENCODING 42
SWIDTH 480 0
DWIDTH 5 0
BBX 5 10 0 -2
BITMAP
00
00
50
20
F8
20
50
00
00
00
ENDCHAR
STARTCHAR 2b
ENCODING 43
SWIDTH 480 0
DWIDTH 5 0
BBX 5 10 0 -2
BITMAP
00
00
20
20
F8
20
20
00
00
00
ENDCHAR
STARTCHAR 2c
ENCODING 44
SWIDTH 480 0
DWIDTH 5 0
BBX 5 10 0 -2
BITMAP
00
00
00
00
00
00
20
20
40
00
ENDCHAR
STARTCHAR 2d
ENCODING 45
SWIDTH 480 0
DWIDTH 5 0
BBX 5 10 0 -2
BITMAP
00
00
00
00
78
00
00
00
00
00
ENDCHAR
STARTCHAR 2e
ENCODING 46
SWIDTH 480 0
DWIDTH 5 0
BBX 5 10 0 -2
BITMAP
00
00
00
00
00
00
30
30
00
00
ENDCHAR
STARTCHAR 2f
ENCODING 47
SWIDTH 480 0
DWIDTH 5 0
BBX 5 10 0 -2
BITMAP
00
08
08
10
10
20
20
40
40
00
ENDCHAR
STARTCHAR 30
ENCODING 48
SWIDTH 480 0
DWIDTH 5 0
BBX 5 10 0 -2
BITMAP
00
30
48
58
68
48
48
30
00
00
ENDCHAR
STARTCHAR 31
ENCODING 49
SWIDTH 480 0
DWIDTH 5 0
BBX 5 10 0 -2
BITMAP
00
20
60
20
20
20
20
70
00
00
ENDCHAR
STARTCHAR 32
ENCODING 50
SWIDTH 480 0
DWIDTH 5 0
BBX 5 10 0 -2
BITMAP
00
30
48
08
10
20
40
78
00
00
ENDCHAR
STARTCHAR 33
ENCODING 51
SWIDTH 480 0
DWIDTH 5 0
BBX 5 10 0 -2
BITMAP
00
30
48
08
10
08
48
30
00
00
ENDCHAR
STARTCHAR 34
ENCODING 52
SWIDTH 480 0
DWIDTH 5 0
BBX 5 10 0 -2
BITMAP
00
10
30
50
50
78
10
10
00
00
ENDCHAR
STARTCHAR 35
ENCODING 53
SWIDTH 480 0
DWIDTH 5 0
BBX 5 10 0 -2
BITMAP
00
78
40
70
08
08
48
30
00
00
ENDCHAR
STARTCHAR 36
ENCODING 54
SWIDTH 480 0
DWIDTH 5 0
BBX 5 10 0 -2
BITMAP
00
30
48
40
70
48
48
30
00
00
ENDCHAR
STARTCHAR 37
ENCODING 55
SWIDTH 480 0
DWIDTH 5 0
BBX 5 10 0 -2
BITMAP
00
78
48
10
10
20
20
20
00
00
ENDCHAR
STARTCHAR 38
ENCODING 56
SWIDTH 480 0
DWIDTH 5 0
BBX 5 10 0 -2
BITMAP
00
30
48
48
30
48
48
30
00
00
ENDCHAR
STARTCHAR 39
ENCODING 57
SWIDTH 480 0
DWIDTH 5 0
BBX 5 10 0 -2
BITMAP
00
30
48
48
38
08
48
30
00
00
ENDCHAR
STARTCHAR 3a
ENCODING 58
SWIDTH 480 0
DWIDTH 5 0
BBX 5 10 0 -2
BITMAP
00
00
30
30
00
00
30
30
00
00
ENDCHAR
STARTCHAR 3b
ENCODING 59
SWIDTH 480 0
DWIDTH 5 0
BBX 5 10 0 -2
BITMAP
00
00
30
30
00
00
30
10
20
00
ENDCHAR
STARTCHAR 3c
ENCODING 60
SWIDTH 480 0
DWIDTH 5 0
BBX 5 10 0 -2
BITMAP
00
08
10
20
40
20
10
08
00
00
ENDCHAR
STARTCHAR 3d
ENCODING 61
SWIDTH 480 0
DWIDTH 5 0
BBX 5 10 0 -2
BITMAP
00
00
00
78
00
78
00
00
00
00
ENDCHAR
STARTCHAR 3e
ENCODING 62
SWIDTH 480 0
DWIDTH 5 0
BBX 5 10 0 -2
BITMAP
00
40
20
10
08
10
20
40
00
00
ENDCHAR
STARTCHAR 3f
ENCODING 63
SWIDTH 480 0
DWIDTH 5 0
BBX 5 10 0 -2
BITMAP
00
30
48
08
10
10
00
10
00
00
ENDCHAR
STARTCHAR 40
ENCODING 64
SWIDTH 480 0
DWIDTH 5 0
BBX 5 10 0 -2
BITMAP
00
30
48
58
68
50
40
30
00
00
ENDCHAR
STARTCHAR 41
ENCODING 65
SWIDTH 480 0
DWIDTH 5 0
BBX 5 10 0 -2
BITMAP
00
30
48
48
78
48
48
48
00
00
ENDCHAR
STARTCHAR 42
ENCODING 66
SWIDTH 480 0
DWIDTH 5 0
BBX 5 10 0 -2
BITMAP
00
70
48
48
70
48
48
70
00
00
ENDCHAR
STARTCHAR 43
ENCODING 67
SWIDTH 480 0
DWIDTH 5 0
BBX 5 10 0 -2
BITMAP
00
30
48
40
40
40
48
30
00
00
ENDCHAR
STARTCHAR 44
ENCODING 68
SWIDTH 480 0
DWIDTH 5 0
BBX 5 10 0 -2
BITMAP
00
70
48
48
48
48
48
70
00
00
ENDCHAR
STARTCHAR 45
ENCODING 69
SWIDTH 480 0
DWIDTH 5 0
BBX 5 10 0 -2
BITMAP
00
78
40
40
70
40
40
78
00
00
ENDCHAR
STARTCHAR 46
ENCODING 70
SWIDTH 480 0
DWIDTH 5 0
BBX 5 10 0 -2
BITMAP
00
78
40
40
70
40
40
40
00
00
ENDCHAR
STARTCHAR 47
ENCODING 71
SWIDTH 480 0
DWIDTH 5 0
BBX 5 10 0 -2
BITMAP
00
30
48
40
58
48
48
38
00
00
ENDCHAR
STARTCHAR 48
ENCODING 72
SWIDTH 480 0
DWIDTH 5 0
BBX 5 10 0 -2
BITMAP
00
48
48
48
78
48
48
48
00
00
ENDCHAR
STARTCHAR 49
ENCODING 73
SWIDTH 480 0
DWIDTH 5 0
BBX 5 10 0 -2
BITMAP
00
70
20
20
20
20
20
70
00
00
ENDCHAR
STARTCHAR 4a
ENCODING 74
SWIDTH 480 0
DWIDTH 5 0
BBX 5 10 0 -2
BITMAP
00
18
08
08
08
48
48
30
00
00
ENDCHAR
STARTCHAR 4b
ENCODING 75
SWIDTH 480 0
DWIDTH 5 0
BBX 5 10 0 -2
BITMAP
00
48
48
50
60
50
48
48
00
00
ENDCHAR
STARTCHAR 4c
ENCODING 76
SWIDTH 480 0
DWIDTH 5 0
BBX 5 10 0 -2
BITMAP
00
40
40
40
40
40
40
78
00
00
ENDCHAR
STARTCHAR 4d
ENCODING 77
SWIDTH 480 0
DWIDTH 5 0
BBX 5 10 0 -2
BITMAP
00
48
78
78
48
48
48
48
00
00
ENDCHAR
STARTCHAR 4e
ENCODING 78
SWIDTH 480 0
DWIDTH 5 0
BBX 5 10 0 -2
BITMAP
00
48
48
68
58
48
48
48
00
00
ENDCHAR
STARTCHAR 4f
ENCODING 79
SWIDTH 480 0
DWIDTH 5 0
BBX 5 10 0 -2
BITMAP
00
30
48
48
48
48
48
30
00
00
ENDCHAR
STARTCHAR 50
ENCODING 80
SWIDTH 480 0
DWIDTH 5 0
BBX 5 10 0 -2
BITMAP
00
70
48
48
70
40
40
40
00
00
ENDCHAR
STARTCHAR 51
ENCODING 81
SWIDTH 480 0
DWIDTH 5 0
BBX 5 10 0 -2
BITMAP
00
30
48
48
48
68
58
30
08
00
ENDCHAR
STARTCHAR 52
ENCODING 82
SWIDTH 480 0
DWIDTH 5 0
BBX 5 10 0 -2
BITMAP
00
70
48
48
70
60
50
48
00
00
ENDCHAR
STARTCHAR 53
ENCODING 83
SWIDTH 480 0
DWIDTH 5 0
BBX 5 10 0 -2
BITMAP
00
30
48
40
30
08
48
30
00
00
ENDCHAR
STARTCHAR 54
ENCODING 84
SWIDTH 480 0
DWIDTH 5 0
BBX 5 10 0 -2
BITMAP
00
F8
20
20
20
20
20
20
00
00
ENDCHAR
STARTCHAR 55
ENCODING 85
SWIDTH 480 0
DWIDTH 5 0
BBX 5 10 0 -2
BITMAP
00
48
48
48
48
48
48
30
00
00
ENDCHAR
STARTCHAR 56
ENCODING 86
SWIDTH 480 0
DWIDTH 5 0
BBX 5 10 0 -2
BITMAP
00
48
48
48
48
78
30
30
00
00
ENDCHAR
STARTCHAR 57
ENCODING 87
SWIDTH 480 0
DWIDTH 5 0
BBX 5 10 0 -2
BITMAP
00
48
48
48
48
78
78
48
00
00
ENDCHAR
STARTCHAR 58
ENCODING 88
SWIDTH 480 0
DWIDTH 5 0
BBX 5 10 0 -2
BITMAP
00
48
48
48
30
48
48
48
00
00
ENDCHAR
STARTCHAR 59
ENCODING 89
SWIDTH 480 0
DWIDTH 5 0
BBX 5 10 0 -2
BITMAP
00
88
88
50
20
20
20
20
00
00
ENDCHAR
STARTCHAR 5a
ENCODING 90
SWIDTH 480 0
DWIDTH 5 0
BBX 5 10 0 -2
BITMAP
00
78
08
10
20
20
40
78
00
00
ENDCHAR
STARTCHAR 5b
ENCODING 91
SWIDTH 480 0
DWIDTH 5 0
BBX 5 10 0 -2
BITMAP
38
20
20
20
20
20
20
20
38
00
ENDCHAR
STARTCHAR 5c
ENCODING 92
SWIDTH 480 0
DWIDTH 5 0
BBX 5 10 0 -2
BITMAP
00
40
40
20
20
10
10
08
08
00
ENDCHAR
STARTCHAR 5d
ENCODING 93
SWIDTH 480 0
DWIDTH 5 0
BBX 5 10 0 -2
BITMAP
70
10
10
10
10
10
10
10
70
00
ENDCHAR
STARTCHAR 5e
ENCODING 94
SWIDTH 480 0
DWIDTH 5 0
BBX 5 10 0 -2
BITMAP
20
50
88
00
00
00
00
00
00
00
ENDCHAR
STARTCHAR 5f
ENCODING 95
SWIDTH 480 0
DWIDTH 5 0
BBX 5 10 0 -2
BITMAP
00
00
00
00
00
00
00
00
78
00
ENDCHAR
STARTCHAR 60
ENCODING 96
SWIDTH 480 0
DWIDTH 5 0
BBX 5 10 0 -2
BITMAP
00
20
20
10
00
00
00
00
00
00
ENDCHAR
STARTCHAR 61
ENCODING 97
SWIDTH 480 0
DWIDTH 5 0
BBX 5 10 0 -2
BITMAP
00
00
00
30
08
38
48
38
00
00
ENDCHAR
STARTCHAR 62
ENCODING 98
SWIDTH 480 0
DWIDTH 5 0
BBX 5 10 0 -2
BITMAP
00
40
40
70
48
48
48
70
00
00
ENDCHAR
STARTCHAR 63
ENCODING 99
SWIDTH 480 0
DWIDTH 5 0
BBX 5 10 0 -2
BITMAP
00
00
00
30
48
40
48
30
00
00
ENDCHAR
STARTCHAR 64
ENCODING 100
SWIDTH 480 0
DWIDTH 5 0
BBX 5 10 0 -2
BITMAP
00
08
08
38
48
48
48
38
00
00
ENDCHAR
STARTCHAR 65
ENCODING 101
SWIDTH 480 0
DWIDTH 5 0
BBX 5 10 0 -2
BITMAP
00
00
00
30
48
78
40
30
00
00
ENDCHAR
STARTCHAR 66
ENCODING 102
SWIDTH 480 0
DWIDTH 5 0
BBX 5 10 0 -2
BITMAP
00
18
20
78
20
20
20
20
00
00
ENDCHAR
STARTCHAR 67
ENCODING 103
SWIDTH 480 0
DWIDTH 5 0
BBX 5 10 0 -2
BITMAP
00
00
00
38
48
48
38
08
30
00
ENDCHAR
STARTCHAR 68
ENCODING 104
SWIDTH 480 0
DWIDTH 5 0
BBX 5 10 0 -2
BITMAP
00
40
40
70
48
48
48
48
00
00
ENDCHAR
STARTCHAR 69
ENCODING 105
SWIDTH 480 0
DWIDTH 5 0
BBX 5 10 0 -2
BITMAP
00
20
00
60
20
20
20
70
00
00
ENDCHAR
STARTCHAR 6a
ENCODING 106
SWIDTH 480 0
DWIDTH 5 0
BBX 5 10 0 -2
BITMAP
00
08
00
18
08
08
08
48
30
00
ENDCHAR
STARTCHAR 6b
ENCODING 107
SWIDTH 480 0
DWIDTH 5 0
BBX 5 10 0 -2
BITMAP
00
40
40
48
50
60
50
48
00
00
ENDCHAR
STARTCHAR 6c
ENCODING 108
SWIDTH 480 0
DWIDTH 5 0
BBX 5 10 0 -2
BITMAP
00
60
20
20
20
20
20
70
00
00
ENDCHAR
STARTCHAR 6d
ENCODING 109
SWIDTH 480 0
DWIDTH 5 0
BBX 5 10 0 -2
BITMAP
00
00
00
D0
A8
A8
A8
A8
00
00
ENDCHAR
STARTCHAR 6e
ENCODING 110
SWIDTH 480 0
DWIDTH 5 0
BBX 5 10 0 -2
BITMAP
00
00
00
70
48
48
48
48
00
00
ENDCHAR
STARTCHAR 6f
ENCODING 111
SWIDTH 480 0
DWIDTH 5 0
BBX 5 10 0 -2
BITMAP
00
00
00
30
48
48
48
30
00
00
ENDCHAR
STARTCHAR 70
ENCODING 112
SWIDTH 480 0
DWIDTH 5 0
BBX 5 10 0 -2
BITMAP
00
00
00
70
48
48
70
40
40
00
ENDCHAR
STARTCHAR 71
ENCODING 113
SWIDTH 480 0
DWIDTH 5 0
BBX 5 10 0 -2
BITMAP
00
00
00
38
48
48
38
08
08
00
ENDCHAR
STARTCHAR 72
ENCODING 114
SWIDTH 480 0
DWIDTH 5 0
BBX 5 10 0 -2
BITMAP
00
00
00
58
60
40
40
40
00
00
ENDCHAR
STARTCHAR 73
ENCODING 115
SWIDTH 480 0
DWIDTH 5 0
BBX 5 10 0 -2
BITMAP
00
00
00
38
40
30
08
70
00
00
ENDCHAR
STARTCHAR 74
ENCODING 116
SWIDTH 480 0
DWIDTH 5 0
BBX 5 10 0 -2
BITMAP
00
20
20
78
20
20
20
18
00
00
ENDCHAR
STARTCHAR 75
ENCODING 117
SWIDTH 480 0
DWIDTH 5 0
BBX 5 10 0 -2
BITMAP
00
00
00
48
48
48
48
38
00
00
ENDCHAR
STARTCHAR 76
ENCODING 118
SWIDTH 480 0
DWIDTH 5 0
BBX 5 10 0 -2
BITMAP
00
00
00
48
48
48
30
30
00
00
ENDCHAR
STARTCHAR 77
ENCODING 119
SWIDTH 480 0
DWIDTH 5 0
BBX 5 10 0 -2
BITMAP
00
00
00
88
A8
A8
A8
50
00
00
ENDCHAR
STARTCHAR 78
ENCODING 120
SWIDTH 480 0
DWIDTH 5 0
BBX 5 10 0 -2
BITMAP
00
00
00
48
48
30
48
48
00
00
ENDCHAR
STARTCHAR 79
ENCODING 121
SWIDTH 480 0
DWIDTH 5 0
BBX 5 10 0 -2
BITMAP
00
00
00
48
48
48
38
08
30
00
ENDCHAR
STARTCHAR 7a
ENCODING 122
SWIDTH 480 0
DWIDTH 5 0
BBX 5 10 0 -2
BITMAP
00
00
00
78
10
20
40
78
00
00
ENDCHAR
STARTCHAR 7b
ENCODING 123
SWIDTH 480 0
DWIDTH 5 0
BBX 5 10 0 -2
BITMAP
18
20
20
20
40
20
20
20
18
00
ENDCHAR
STARTCHAR 7c
ENCODING 124
SWIDTH 480 0
DWIDTH 5 0
BBX 5 10 0 -2
BITMAP
20
20
20
20
20
20
20
20
20
00
ENDCHAR
STARTCHAR 7d
ENCODING 125
SWIDTH 480 0
DWIDTH 5 0
BBX 5 10 0 -2
BITMAP
60
10
10
10
08
10
10
10
60
00
ENDCHAR
STARTCHAR 7e
ENCODING 126
SWIDTH 480 0
DWIDTH 5 0
BBX 5 10 0 -2
BITMAP
48
A8
90
00
00
00
00
00
00
00
ENDCHAR
STARTCHAR 7f
ENCODING 127
SWIDTH 480 0
DWIDTH 5 0
BBX 5 10 0 -2
BITMAP
00
00
00
00
00
00
00
00
00
00
ENDCHAR
STARTCHAR 80
ENCODING 128
SWIDTH 480 0
DWIDTH 5 0
BBX 5 10 0 -2
BITMAP
00
00
00
00
00
00
00
00
00
00
ENDCHAR
STARTCHAR 81
ENCODING 129
SWIDTH 480 0
DWIDTH 5 0
BBX 5 10 0 -2
BITMAP
00
00
00
00
00
00
00
00
00
00
ENDCHAR
STARTCHAR 82
ENCODING 130
SWIDTH 480 0
DWIDTH 5 0
BBX 5 10 0 -2
BITMAP
00
00
00
00
00
00
00
00
00
00
ENDCHAR
STARTCHAR 83
ENCODING 131
SWIDTH 480 0
DWIDTH 5 0
BBX 5 10 0 -2
BITMAP
00
00
00
00
00
00
00
00
00
00
ENDCHAR
STARTCHAR 84
ENCODING 132
SWIDTH 480 0
DWIDTH 5 0
BBX 5 10 0 -2
BITMAP
00
00
00
00
00
00
00
00
00
00
ENDCHAR
STARTCHAR 85
ENCODING 133
SWIDTH 480 0
DWIDTH 5 0
BBX 5 10 0 -2
BITMAP
00
00
00
00
00
00
00
00
00
00
ENDCHAR
STARTCHAR 86
ENCODING 134
SWIDTH 480 0
DWIDTH 5 0
BBX 5 10 0 -2
BITMAP
00
00
00
00
00
00
00
00
00
00
ENDCHAR
STARTCHAR 87
ENCODING 135
SWIDTH 480 0
DWIDTH 5 0
BBX 5 10 0 -2
BITMAP
00
00
00
00
00
00
00
00
00
00
ENDCHAR
STARTCHAR 88
ENCODING 136
SWIDTH 480 0
DWIDTH 5 0
BBX 5 10 0 -2
BITMAP
00
00
00
00
00
00
00
00
00
00
ENDCHAR
STARTCHAR 89
ENCODING 137
SWIDTH 480 0
DWIDTH 5 0
BBX 5 10 0 -2
BITMAP
00
00
00
00
00
00
00
00
00
00
ENDCHAR
STARTCHAR 8a
ENCODING 138
SWIDTH 480 0
DWIDTH 5 0
BBX 5 10 0 -2
BITMAP
00
00
00
00
00
00
00
00
00
00
ENDCHAR
STARTCHAR 8b
ENCODING 139
SWIDTH 480 0
DWIDTH 5 0
BBX 5 10 0 -2
BITMAP
00
00
00
00
00
00
00
00
00
00
ENDCHAR
STARTCHAR 8c
ENCODING 140
SWIDTH 480 0
DWIDTH 5 0
BBX 5 10 0 -2
BITMAP
00
00
00
00
00
00
00
00
00
00
ENDCHAR
STARTCHAR 8d
ENCODING 141
SWIDTH 480 0
DWIDTH 5 0
BBX 5 10 0 -2
BITMAP
00
00
00
00
00
00
00
00
00
00
ENDCHAR
STARTCHAR 8e
ENCODING 142
SWIDTH 480 0
DWIDTH 5 0
BBX 5 10 0 -2
BITMAP
00
00
00
00
00
00
00
00
00
00
ENDCHAR
STARTCHAR 8f
ENCODING 143
SWIDTH 480 0
DWIDTH 5 0
BBX 5 10 0 -2
BITMAP
00
00
00
00
00
00
00
00
00
00
ENDCHAR
STARTCHAR 90
ENCODING 144
SWIDTH 480 0
DWIDTH 5 0
BBX 5 10 0 -2
BITMAP
00
00
00
00
00
00
00
00
00
00
ENDCHAR
STARTCHAR 91
ENCODING 145
SWIDTH 480 0
DWIDTH 5 0
BBX 5 10 0 -2
BITMAP
00
00
00
00
00
00
00
00
00
00
ENDCHAR
STARTCHAR 92
ENCODING 146
SWIDTH 480 0
DWIDTH 5 0
BBX 5 10 0 -2
BITMAP
00
00
00
00
00
00
00
00
00
00
ENDCHAR
STARTCHAR 93
ENCODING 147
SWIDTH 480 0
DWIDTH 5 0
BBX 5 10 0 -2
BITMAP
00
00
00
00
00
00
00
00
00
00
ENDCHAR
STARTCHAR 94
ENCODING 148
SWIDTH 480 0
DWIDTH 5 0
BBX 5 10 0 -2
BITMAP
00
00
00
00
00
00
00
00
00
00
ENDCHAR
STARTCHAR 95
ENCODING 149
SWIDTH 480 0
DWIDTH 5 0
BBX 5 10 0 -2
BITMAP
00
00
00
00
00
00
00
00
00
00
ENDCHAR
STARTCHAR 96
ENCODING 150
SWIDTH 480 0
DWIDTH 5 0
BBX 5 10 0 -2
BITMAP
00
00
00
00
00
00
00
00
00
00
ENDCHAR
STARTCHAR 97
ENCODING 151
SWIDTH 480 0
DWIDTH 5 0
BBX 5 10 0 -2
BITMAP
00
00
00
00
00
00
00
00
00
00
ENDCHAR
STARTCHAR 98
ENCODING 152
SWIDTH 480 0
DWIDTH 5 0
BBX 5 10 0 -2
BITMAP
00
00
00
00
00
00
00
00
00
00
ENDCHAR
STARTCHAR 99
ENCODING 153
SWIDTH 480 0
DWIDTH 5 0
BBX 5 10 0 -2
BITMAP
00
00
00
00
00
00
00
00
00
00
ENDCHAR
STARTCHAR 9a
ENCODING 154
SWIDTH 480 0
DWIDTH 5 0
BBX 5 10 0 -2
BITMAP
00
00
00
00
00
00
00
00
00
00
ENDCHAR
STARTCHAR 9b
ENCODING 155
SWIDTH 480 0
DWIDTH 5 0
BBX 5 10 0 -2
BITMAP
00
00
00
00
00
00
00
00
00
00
ENDCHAR
STARTCHAR 9c
ENCODING 156
SWIDTH 480 0
DWIDTH 5 0
BBX 5 10 0 -2
BITMAP
00
00
00
00
00
00
00
00
00
00
ENDCHAR
STARTCHAR 9d
ENCODING 157
SWIDTH 480 0
DWIDTH 5 0
BBX 5 10 0 -2
BITMAP
00
00
00
00
00
00
00
00
00
00
ENDCHAR
STARTCHAR 9e
ENCODING 158
SWIDTH 480 0
DWIDTH 5 0
BBX 5 10 0 -2
BITMAP
00
00
00
00
00
00
00
00
00
00
ENDCHAR
STARTCHAR 9f
ENCODING 159
SWIDTH 480 0
DWIDTH 5 0
BBX 5 10 0 -2
BITMAP
00
00
00
00
00
00
00
00
00
00
ENDCHAR
STARTCHAR a0
ENCODING 160
SWIDTH 480 0
DWIDTH 5 0
BBX 5 10 0 -2
BITMAP
00
00
00
00
00
00
00
00
00
00
ENDCHAR
STARTCHAR a1
ENCODING 161
SWIDTH 480 0
DWIDTH 5 0
BBX 5 10 0 -2
BITMAP
00
20
00
00
20
20
20
20
00
00
ENDCHAR
STARTCHAR a2
ENCODING 162
SWIDTH 480 0
DWIDTH 5 0
BBX 5 10 0 -2
BITMAP
00
10
10
38
50
50
38
10
10
00
ENDCHAR
STARTCHAR a3
ENCODING 163
SWIDTH 480 0
DWIDTH 5 0
BBX 5 10 0 -2
BITMAP
00
30
48
40
F0
40
40
F8
00
00
ENDCHAR
STARTCHAR a4
ENCODING 164
SWIDTH 480 0
DWIDTH 5 0
BBX 5 10 0 -2
BITMAP
00
00
88
70
50
70
88
00
00
00
ENDCHAR
STARTCHAR a5
ENCODING 165
SWIDTH 480 0
DWIDTH 5 0
BBX 5 10 0 -2
BITMAP
00
88
88
50
F8
20
F8
20
00
00
ENDCHAR
STARTCHAR a6
ENCODING 166
SWIDTH 480 0
DWIDTH 5 0
BBX 5 10 0 -2
BITMAP
00
20
20
20
00
20
20
20
00
00
ENDCHAR
STARTCHAR a7
ENCODING 167
SWIDTH 480 0
DWIDTH 5 0
BBX 5 10 0 -2
BITMAP
30
48
20
30
48
30
10
48
30
00
ENDCHAR
STARTCHAR a8
ENCODING 168
SWIDTH 480 0
DWIDTH 5 0
BBX 5 10 0 -2
BITMAP
00
50
00
00
00
00
00
00
00
00
ENDCHAR
STARTCHAR a9
ENCODING 169
SWIDTH 480 0
DWIDTH 5 0
BBX 5 10 0 -2
BITMAP
00
00
70
88
B8
B8
88
70
00
00
ENDCHAR
STARTCHAR aa
ENCODING 170
SWIDTH 480 0
DWIDTH 5 0
BBX 5 10 0 -2
BITMAP
30
48
58
28
00
78
00
00
00
00
ENDCHAR
STARTCHAR ab
ENCODING 171
SWIDTH 480 0
DWIDTH 5 0
BBX 5 10 0 -2
BITMAP
00
00
00
28
50
A0
50
28
00
00
ENDCHAR
STARTCHAR ac
ENCODING 172
SWIDTH 480 0
DWIDTH 5 0
BBX 5 10 0 -2
BITMAP
00
00
00
00
78
08
08
00
00
00
ENDCHAR
STARTCHAR ad
ENCODING 173
SWIDTH 480 0
DWIDTH 5 0
BBX 5 10 0 -2
BITMAP
00
00
00
00
00
70
00
00
00
00
ENDCHAR
STARTCHAR ae
ENCODING 174
SWIDTH 480 0
DWIDTH 5 0
BBX 5 10 0 -2
BITMAP
00
00
70
88
A8
98
A8
70
00
00
ENDCHAR
STARTCHAR af
ENCODING 175
SWIDTH 480 0
DWIDTH 5 0
BBX 5 10 0 -2
BITMAP
00
70
00
00
00
00
00
00
00
00
ENDCHAR
STARTCHAR b0
ENCODING 176
SWIDTH 480 0
DWIDTH 5 0
BBX 5 10 0 -2
BITMAP
00
70
50
70
00
00
00
00
00
00
ENDCHAR
STARTCHAR b1
ENCODING 177
SWIDTH 480 0
DWIDTH 5 0
BBX 5 10 0 -2
BITMAP
00
00
20
20
F8
20
20
F8
00
00
ENDCHAR
STARTCHAR b2
ENCODING 178
SWIDTH 480 0
DWIDTH 5 0
BBX 5 10 0 -2
BITMAP
00
70
08
30
40
78
00
00
00
00
ENDCHAR
STARTCHAR b3
ENCODING 179
SWIDTH 480 0
DWIDTH 5 0
BBX 5 10 0 -2
BITMAP
00
70
08
30
08
70
00
00
00
00
ENDCHAR
STARTCHAR b4
ENCODING 180
SWIDTH 480 0
DWIDTH 5 0
BBX 5 10 0 -2
BITMAP
00
10
20
40
00
00
00
00
00
00
ENDCHAR
STARTCHAR b5
ENCODING 181
SWIDTH 480 0
DWIDTH 5 0
BBX 5 10 0 -2
BITMAP
00
00
00
48
48
58
68
40
40
00
ENDCHAR
STARTCHAR b6
ENCODING 182
SWIDTH 480 0
DWIDTH 5 0
BBX 5 10 0 -2
BITMAP
00
38
58
58
58
38
18
18
18
00
ENDCHAR
STARTCHAR b7
ENCODING 183
SWIDTH 480 0
DWIDTH 5 0
BBX 5 10 0 -2
BITMAP
00
00
00
00
20
00
00
00
00
00
ENDCHAR
STARTCHAR b8
ENCODING 184
SWIDTH 480 0
DWIDTH 5 0
BBX 5 10 0 -2
BITMAP
00
00
00
00
00
00
00
10
20
40
ENDCHAR
STARTCHAR b9
ENCODING 185
SWIDTH 480 0
DWIDTH 5 0
BBX 5 10 0 -2
BITMAP
00
20
60
20
20
20
00
00
00
00
ENDCHAR
STARTCHAR ba
ENCODING 186
SWIDTH 480 0
DWIDTH 5 0
BBX 5 10 0 -2
BITMAP
30
48
48
30
00
78
00
00
00
00
ENDCHAR
STARTCHAR bb
ENCODING 187
SWIDTH 480 0
DWIDTH 5 0
BBX 5 10 0 -2
BITMAP
00
00
00
A0
50
28
50
A0
00
00
ENDCHAR
STARTCHAR bc
ENCODING 188
SWIDTH 480 0
DWIDTH 5 0
BBX 5 10 0 -2
BITMAP
00
80
88
90
A0
58
A8
38
08
00
ENDCHAR
STARTCHAR bd
ENCODING 189
SWIDTH 480 0
DWIDTH 5 0
BBX 5 10 0 -2
BITMAP
00
80
88
90
A0
70
88
10
38
00
ENDCHAR
STARTCHAR be
ENCODING 190
SWIDTH 480 0
DWIDTH 5 0
BBX 5 10 0 -2
BITMAP
E0
40
28
D0
20
58
A8
38
08
00
ENDCHAR
STARTCHAR bf
ENCODING 191
SWIDTH 480 0
DWIDTH 5 0
BBX 5 10 0 -2
BITMAP
00
20
00
20
20
40
48
30
00
00
ENDCHAR
STARTCHAR c0
ENCODING 192
SWIDTH 480 0
DWIDTH 5 0
BBX 5 10 0 -2
BITMAP
20
10
00
30
48
78
48
48
00
00
ENDCHAR
STARTCHAR c1
ENCODING 193
SWIDTH 480 0
DWIDTH 5 0
BBX 5 10 0 -2
BITMAP
10
20
00
30
48
78
48
48
00
00
ENDCHAR
STARTCHAR c2
ENCODING 194
SWIDTH 480 0
DWIDTH 5 0
BBX 5 10 0 -2
BITMAP
30
48
00
30
48
78
48
48
00
00
ENDCHAR
STARTCHAR c3
ENCODING 195
SWIDTH 480 0
DWIDTH 5 0
BBX 5 10 0 -2
BITMAP
28
50
00
30
48
78
48
48
00
00
ENDCHAR
STARTCHAR c4
ENCODING 196
SWIDTH 480 0
DWIDTH 5 0
BBX 5 10 0 -2
BITMAP
00
48
00
30
48
78
48
48
00
00
ENDCHAR
STARTCHAR c5
ENCODING 197
SWIDTH 480 0
DWIDTH 5 0
BBX 5 10 0 -2
BITMAP
30
48
30
30
48
78
48
48
00
00
ENDCHAR
STARTCHAR c6
ENCODING 198
SWIDTH 480 0
DWIDTH 5 0
BBX 5 10 0 -2
BITMAP
00
38
50
50
78
50
50
58
00
00
ENDCHAR
STARTCHAR c7
ENCODING 199
SWIDTH 480 0
DWIDTH 5 0
BBX 5 10 0 -2
BITMAP
00
30
48
40
40
40
48
30
10
20
ENDCHAR
STARTCHAR c8
ENCODING 200
SWIDTH 480 0
DWIDTH 5 0
BBX 5 10 0 -2
BITMAP
20
10
00
78
40
70
40
78
00
00
ENDCHAR
STARTCHAR c9
ENCODING 201
SWIDTH 480 0
DWIDTH 5 0
BBX 5 10 0 -2
BITMAP
10
20
00
78
40
70
40
78
00
00
ENDCHAR
STARTCHAR ca
ENCODING 202
SWIDTH 480 0
DWIDTH 5 0
BBX 5 10 0 -2
BITMAP
30
48
00
78
40
70
40
78
00
00
ENDCHAR
STARTCHAR cb
ENCODING 203
SWIDTH 480 0
DWIDTH 5 0
BBX 5 10 0 -2
BITMAP
00
48
00
78
40
70
40
78
00
00
ENDCHAR
STARTCHAR cc
ENCODING 204
SWIDTH 480 0
DWIDTH 5 0
BBX 5 10 0 -2
BITMAP
40
20
00
70
20
20
20
70
00
00
ENDCHAR
STARTCHAR cd
ENCODING 205
SWIDTH 480 0
DWIDTH 5 0
BBX 5 10 0 -2
BITMAP
10
20
00
70
20
20
20
70
00
00
ENDCHAR
STARTCHAR ce
ENCODING 206
SWIDTH 480 0
DWIDTH 5 0
BBX 5 10 0 -2
BITMAP
20
50
00
70
20
20
20
70
00
00
ENDCHAR
STARTCHAR cf
ENCODING 207
SWIDTH 480 0
DWIDTH 5 0
BBX 5 10 0 -2
BITMAP
00
50
00
70
20
20
20
70
00
00
ENDCHAR
STARTCHAR d0
ENCODING 208
SWIDTH 480 0
DWIDTH 5 0
BBX 5 10 0 -2
BITMAP
00
70
48
48
E8
48
48
70
00
00
ENDCHAR
STARTCHAR d1
ENCODING 209
SWIDTH 480 0
DWIDTH 5 0
BBX 5 10 0 -2
BITMAP
28
50
00
48
68
58
48
48
00
00
ENDCHAR
STARTCHAR d2
ENCODING 210
SWIDTH 480 0
DWIDTH 5 0
BBX 5 10 0 -2
BITMAP
20
10
00
30
48
48
48
30
00
00
ENDCHAR
STARTCHAR d3
ENCODING 211
SWIDTH 480 0
DWIDTH 5 0
BBX 5 10 0 -2
BITMAP
10
20
00
30
48
48
48
30
00
00
ENDCHAR
STARTCHAR d4
ENCODING 212
SWIDTH 480 0
DWIDTH 5 0
BBX 5 10 0 -2
BITMAP
30
48
00
30
48
48
48
30
00
00
ENDCHAR
STARTCHAR d5
ENCODING 213
SWIDTH 480 0
DWIDTH 5 0
BBX 5 10 0 -2
BITMAP
28
50
00
30
48
48
48
30
00
00
ENDCHAR
STARTCHAR d6
ENCODING 214
SWIDTH 480 0
DWIDTH 5 0
BBX 5 10 0 -2
BITMAP
00
48
00
30
48
48
48
30
00
00
ENDCHAR
STARTCHAR d7
ENCODING 215
SWIDTH 480 0
DWIDTH 5 0
BBX 5 10 0 -2
BITMAP
00
00
88
50
20
50
88
00
00
00
ENDCHAR
STARTCHAR d8
ENCODING 216
SWIDTH 480 0
DWIDTH 5 0
BBX 5 10 0 -2
BITMAP
08
30
58
58
68
68
68
30
40
00
ENDCHAR
STARTCHAR d9
ENCODING 217
SWIDTH 480 0
DWIDTH 5 0
BBX 5 10 0 -2
BITMAP
20
10
00
48
48
48
48
30
00
00
ENDCHAR
STARTCHAR da
ENCODING 218
SWIDTH 480 0
DWIDTH 5 0
BBX 5 10 0 -2
BITMAP
10
20
00
48
48
48
48
30
00
00
ENDCHAR
STARTCHAR db
ENCODING 219
SWIDTH 480 0
DWIDTH 5 0
BBX 5 10 0 -2
BITMAP
30
48
00
48
48
48
48
30
00
00
ENDCHAR
STARTCHAR dc
ENCODING 220
SWIDTH 480 0
DWIDTH 5 0
BBX 5 10 0 -2
BITMAP
00
48
00
48
48
48
48
30
00
00
ENDCHAR
STARTCHAR dd
ENCODING 221
SWIDTH 480 0
DWIDTH 5 0
BBX 5 10 0 -2
BITMAP
10
20
00
88
50
20
20
20
00
00
ENDCHAR
STARTCHAR de
ENCODING 222
SWIDTH 480 0
DWIDTH 5 0
BBX 5 10 0 -2
BITMAP
00
40
70
48
48
70
40
40
40
00
ENDCHAR
STARTCHAR df
ENCODING 223
SWIDTH 480 0
DWIDTH 5 0
BBX 5 10 0 -2
BITMAP
00
30
48
48
50
48
48
50
40
00
ENDCHAR
STARTCHAR e0
ENCODING 224
SWIDTH 480 0
DWIDTH 5 0
BBX 5 10 0 -2
BITMAP
20
10
00
30
08
38
48
38
00
00
ENDCHAR
STARTCHAR e1
ENCODING 225
SWIDTH 480 0
DWIDTH 5 0
BBX 5 10 0 -2
BITMAP
10
20
00
30
08
38
48
38
00
00
ENDCHAR
STARTCHAR e2
ENCODING 226
SWIDTH 480 0
DWIDTH 5 0
BBX 5 10 0 -2
BITMAP
30
48
00
30
08
38
48
38
00
00
ENDCHAR
STARTCHAR e3
ENCODING 227
SWIDTH 480 0
DWIDTH 5 0
BBX 5 10 0 -2
BITMAP
28
50
00
30
08
38
48
38
00
00
ENDCHAR
STARTCHAR e4
ENCODING 228
SWIDTH 480 0
DWIDTH 5 0
BBX 5 10 0 -2
BITMAP
00
48
00
30
08
38
48
38
00
00
ENDCHAR
STARTCHAR e5
ENCODING 229
SWIDTH 480 0
DWIDTH 5 0
BBX 5 10 0 -2
BITMAP
30
48
30
30
08
38
48
38
00
00
ENDCHAR
STARTCHAR e6
ENCODING 230
SWIDTH 480 0
DWIDTH 5 0
BBX 5 10 0 -2
BITMAP
00
00
00
50
28
78
A0
58
00
00
ENDCHAR
STARTCHAR e7
ENCODING 231
SWIDTH 480 0
DWIDTH 5 0
BBX 5 10 0 -2
BITMAP
00
00
00
30
48
40
48
30
10
20
ENDCHAR
STARTCHAR e8
ENCODING 232
SWIDTH 480 0
DWIDTH 5 0
BBX 5 10 0 -2
BITMAP
20
10
00
30
48
78
40
30
00
00
ENDCHAR
STARTCHAR e9
ENCODING 233
SWIDTH 480 0
DWIDTH 5 0
BBX 5 10 0 -2
BITMAP
10
20
00
30
48
78
40
30
00
00
ENDCHAR
STARTCHAR ea
ENCODING 234
SWIDTH 480 0
DWIDTH 5 0
BBX 5 10 0 -2
BITMAP
30
48
00
30
48
78
40
30
00
00
ENDCHAR
STARTCHAR eb
ENCODING 235
SWIDTH 480 0
DWIDTH 5 0
BBX 5 10 0 -2
BITMAP
00
48
00
30
48
78
40
30
00
00
ENDCHAR
STARTCHAR ec
ENCODING 236
SWIDTH 480 0
DWIDTH 5 0
BBX 5 10 0 -2
BITMAP
40
20
00
60
20
20
20
70
00
00
ENDCHAR
STARTCHAR ed
ENCODING 237
SWIDTH 480 0
DWIDTH 5 0
BBX 5 10 0 -2
BITMAP
10
20
00
60
20
20
20
70
00
00
ENDCHAR
STARTCHAR ee
ENCODING 238
SWIDTH 480 0
DWIDTH 5 0
BBX 5 10 0 -2
BITMAP
20
50
00
60
20
20
20
70
00
00
ENDCHAR
STARTCHAR ef
ENCODING 239
SWIDTH 480 0
DWIDTH 5 0
BBX 5 10 0 -2
BITMAP
00
50
00
60
20
20
20
70
00
00
ENDCHAR
STARTCHAR f0
ENCODING 240
SWIDTH 480 0
DWIDTH 5 0
BBX 5 10 0 -2
BITMAP
00
50
20
50
38
48
48
30
00
00
ENDCHAR
STARTCHAR f1
ENCODING 241
SWIDTH 480 0
DWIDTH 5 0
BBX 5 10 0 -2
BITMAP
28
50
00
70
48
48
48
48
00
00
ENDCHAR
STARTCHAR f2
ENCODING 242
SWIDTH 480 0
DWIDTH 5 0
BBX 5 10 0 -2
BITMAP
20
10
00
00
30
48
48
30
00
00
ENDCHAR
STARTCHAR f3
ENCODING 243
SWIDTH 480 0
DWIDTH 5 0
BBX 5 10 0 -2
BITMAP
10
20
00
00
30
48
48
30
00
00
ENDCHAR
STARTCHAR f4
ENCODING 244
SWIDTH 480 0
DWIDTH 5 0
BBX 5 10 0 -2
BITMAP
30
48
00
00
30
48
48
30
00
00
ENDCHAR
STARTCHAR f5
ENCODING 245
SWIDTH 480 0
DWIDTH 5 0
BBX 5 10 0 -2
BITMAP
28
50
00
00
30
48
48
30
00
00
ENDCHAR
STARTCHAR f6
ENCODING 246
SWIDTH 480 0
DWIDTH 5 0
BBX 5 10 0 -2
BITMAP
00
48
00
00
30
48
48
30
00
00
ENDCHAR
STARTCHAR f7
ENCODING 247
SWIDTH 480 0
DWIDTH 5 0
BBX 5 10 0 -2
BITMAP
00
00
20
00
F8
00
20
00
00
00
ENDCHAR
STARTCHAR f8
ENCODING 248
SWIDTH 480 0
DWIDTH 5 0
BBX 5 10 0 -2
BITMAP
00
00
08
30
58
68
68
30
40
00
ENDCHAR
STARTCHAR f9
ENCODING 249
SWIDTH 480 0
DWIDTH 5 0
BBX 5 10 0 -2
BITMAP
20
10
00
00
48
48
48
38
00
00
ENDCHAR
STARTCHAR fa
ENCODING 250
SWIDTH 480 0
DWIDTH 5 0
BBX 5 10 0 -2
BITMAP
10
20
00
00
48
48
48
38
00
00
ENDCHAR
STARTCHAR fb
ENCODING 251
SWIDTH 480 0
DWIDTH 5 0
BBX 5 10 0 -2
BITMAP
30
48
00
00
48
48
48
38
00
00
ENDCHAR
STARTCHAR fc
ENCODING 252
SWIDTH 480 0
DWIDTH 5 0
BBX 5 10 0 -2
BITMAP
00
48
00
00
48
48
48
38
00
00
ENDCHAR
STARTCHAR fd
ENCODING 253
SWIDTH 480 0
DWIDTH 5 0
BBX 5 10 0 -2
BITMAP
10
20
00
48
48
48
38
08
30
00
ENDCHAR
STARTCHAR fe
ENCODING 254
SWIDTH 480 0
DWIDTH 5 0
BBX 5 10 0 -2
BITMAP
00
40
40
70
48
48
70
40
40
00
ENDCHAR
STARTCHAR ff
ENCODING 255
SWIDTH 480 0
DWIDTH 5 0
BBX 5 10 0 -2
BITMAP
00
48
00
48
48
48
38
08
30
00
ENDCHAR
ENDFONT
